<mxfile host="app.diagrams.net" modified="2020-12-08T15:50:09.096Z" agent="5.0 (Windows NT 10.0; Win64; x64) AppleWebKit/537.36 (KHTML, like Gecko) Chrome/86.0.4240.75 Safari/537.36" etag="ZM6Le5Sro6QTfZv2vPC7" version="13.10.1" type="github">
  <diagram id="oAHdT0cr7KoCjuDtHwfC" name="Page-1">
    <mxGraphModel dx="868" dy="450" grid="1" gridSize="10" guides="1" tooltips="1" connect="1" arrows="1" fold="1" page="1" pageScale="1" pageWidth="827" pageHeight="1169" math="0" shadow="0">
      <root>
        <mxCell id="0" />
        <mxCell id="1" parent="0" />
        <mxCell id="pxW2N-9aUfCXWLF0EJ2--33" style="edgeStyle=orthogonalEdgeStyle;rounded=0;sketch=1;orthogonalLoop=1;jettySize=auto;html=1;exitX=1;exitY=0.25;exitDx=0;exitDy=0;entryX=0;entryY=0.25;entryDx=0;entryDy=0;" edge="1" parent="1" source="pxW2N-9aUfCXWLF0EJ2--1" target="pxW2N-9aUfCXWLF0EJ2--12">
          <mxGeometry relative="1" as="geometry" />
        </mxCell>
        <mxCell id="pxW2N-9aUfCXWLF0EJ2--1" value="" style="rounded=1;whiteSpace=wrap;html=1;sketch=1;" vertex="1" parent="1">
          <mxGeometry x="61" y="339.5" width="160" height="260" as="geometry" />
        </mxCell>
        <mxCell id="pxW2N-9aUfCXWLF0EJ2--8" value="" style="edgeStyle=orthogonalEdgeStyle;rounded=0;orthogonalLoop=1;jettySize=auto;html=1;sketch=1;" edge="1" parent="1" source="pxW2N-9aUfCXWLF0EJ2--3" target="pxW2N-9aUfCXWLF0EJ2--5">
          <mxGeometry relative="1" as="geometry" />
        </mxCell>
        <mxCell id="pxW2N-9aUfCXWLF0EJ2--3" value="最小记录" style="rounded=1;whiteSpace=wrap;html=1;sketch=1;fillColor=#f5f5f5;strokeColor=#666666;fontColor=#333333;" vertex="1" parent="1">
          <mxGeometry x="86" y="354.5" width="110" height="30" as="geometry" />
        </mxCell>
        <mxCell id="pxW2N-9aUfCXWLF0EJ2--11" value="" style="edgeStyle=orthogonalEdgeStyle;rounded=0;orthogonalLoop=1;jettySize=auto;html=1;sketch=1;" edge="1" parent="1" source="pxW2N-9aUfCXWLF0EJ2--4" target="pxW2N-9aUfCXWLF0EJ2--7">
          <mxGeometry relative="1" as="geometry" />
        </mxCell>
        <mxCell id="pxW2N-9aUfCXWLF0EJ2--4" value="3 b 9" style="rounded=1;whiteSpace=wrap;html=1;sketch=1;fillColor=#dae8fc;strokeColor=#6c8ebf;" vertex="1" parent="1">
          <mxGeometry x="86" y="504.5" width="110" height="30" as="geometry" />
        </mxCell>
        <mxCell id="pxW2N-9aUfCXWLF0EJ2--9" value="" style="edgeStyle=orthogonalEdgeStyle;rounded=0;orthogonalLoop=1;jettySize=auto;html=1;sketch=1;" edge="1" parent="1" source="pxW2N-9aUfCXWLF0EJ2--5" target="pxW2N-9aUfCXWLF0EJ2--6">
          <mxGeometry relative="1" as="geometry" />
        </mxCell>
        <mxCell id="pxW2N-9aUfCXWLF0EJ2--5" value="1 a 10&amp;nbsp;" style="rounded=1;whiteSpace=wrap;html=1;sketch=1;fillColor=#dae8fc;strokeColor=#6c8ebf;" vertex="1" parent="1">
          <mxGeometry x="86" y="404.5" width="110" height="30" as="geometry" />
        </mxCell>
        <mxCell id="pxW2N-9aUfCXWLF0EJ2--10" value="" style="edgeStyle=orthogonalEdgeStyle;rounded=0;orthogonalLoop=1;jettySize=auto;html=1;sketch=1;" edge="1" parent="1" source="pxW2N-9aUfCXWLF0EJ2--6" target="pxW2N-9aUfCXWLF0EJ2--4">
          <mxGeometry relative="1" as="geometry" />
        </mxCell>
        <mxCell id="pxW2N-9aUfCXWLF0EJ2--6" value="2 c 12" style="rounded=1;whiteSpace=wrap;html=1;sketch=1;fillColor=#dae8fc;strokeColor=#6c8ebf;" vertex="1" parent="1">
          <mxGeometry x="86" y="454.5" width="110" height="30" as="geometry" />
        </mxCell>
        <mxCell id="pxW2N-9aUfCXWLF0EJ2--7" value="最大记录" style="rounded=1;whiteSpace=wrap;html=1;sketch=1;fillColor=#f5f5f5;strokeColor=#666666;fontColor=#333333;" vertex="1" parent="1">
          <mxGeometry x="86" y="554" width="110" height="30" as="geometry" />
        </mxCell>
        <mxCell id="pxW2N-9aUfCXWLF0EJ2--34" style="edgeStyle=orthogonalEdgeStyle;rounded=0;sketch=1;orthogonalLoop=1;jettySize=auto;html=1;exitX=1;exitY=0.25;exitDx=0;exitDy=0;entryX=0;entryY=0.25;entryDx=0;entryDy=0;" edge="1" parent="1" source="pxW2N-9aUfCXWLF0EJ2--12" target="pxW2N-9aUfCXWLF0EJ2--22">
          <mxGeometry relative="1" as="geometry" />
        </mxCell>
        <mxCell id="pxW2N-9aUfCXWLF0EJ2--35" style="edgeStyle=orthogonalEdgeStyle;rounded=0;sketch=1;orthogonalLoop=1;jettySize=auto;html=1;exitX=0;exitY=0.75;exitDx=0;exitDy=0;entryX=1;entryY=0.75;entryDx=0;entryDy=0;" edge="1" parent="1" source="pxW2N-9aUfCXWLF0EJ2--12" target="pxW2N-9aUfCXWLF0EJ2--1">
          <mxGeometry relative="1" as="geometry" />
        </mxCell>
        <mxCell id="pxW2N-9aUfCXWLF0EJ2--12" value="" style="rounded=1;whiteSpace=wrap;html=1;sketch=1;" vertex="1" parent="1">
          <mxGeometry x="310" y="339.5" width="160" height="260" as="geometry" />
        </mxCell>
        <mxCell id="pxW2N-9aUfCXWLF0EJ2--13" value="" style="edgeStyle=orthogonalEdgeStyle;rounded=0;orthogonalLoop=1;jettySize=auto;html=1;sketch=1;" edge="1" parent="1" source="pxW2N-9aUfCXWLF0EJ2--14" target="pxW2N-9aUfCXWLF0EJ2--18">
          <mxGeometry relative="1" as="geometry" />
        </mxCell>
        <mxCell id="pxW2N-9aUfCXWLF0EJ2--14" value="最小记录" style="rounded=1;whiteSpace=wrap;html=1;sketch=1;fillColor=#f5f5f5;strokeColor=#666666;fontColor=#333333;" vertex="1" parent="1">
          <mxGeometry x="335" y="355" width="110" height="30" as="geometry" />
        </mxCell>
        <mxCell id="pxW2N-9aUfCXWLF0EJ2--15" value="" style="edgeStyle=orthogonalEdgeStyle;rounded=0;orthogonalLoop=1;jettySize=auto;html=1;sketch=1;" edge="1" parent="1" source="pxW2N-9aUfCXWLF0EJ2--16" target="pxW2N-9aUfCXWLF0EJ2--21">
          <mxGeometry relative="1" as="geometry" />
        </mxCell>
        <mxCell id="pxW2N-9aUfCXWLF0EJ2--16" value="6 l 13" style="rounded=1;whiteSpace=wrap;html=1;sketch=1;fillColor=#dae8fc;strokeColor=#6c8ebf;" vertex="1" parent="1">
          <mxGeometry x="335" y="505" width="110" height="30" as="geometry" />
        </mxCell>
        <mxCell id="pxW2N-9aUfCXWLF0EJ2--17" value="" style="edgeStyle=orthogonalEdgeStyle;rounded=0;orthogonalLoop=1;jettySize=auto;html=1;sketch=1;" edge="1" parent="1" source="pxW2N-9aUfCXWLF0EJ2--18" target="pxW2N-9aUfCXWLF0EJ2--20">
          <mxGeometry relative="1" as="geometry" />
        </mxCell>
        <mxCell id="pxW2N-9aUfCXWLF0EJ2--18" value="4 d 15" style="rounded=1;whiteSpace=wrap;html=1;sketch=1;fillColor=#dae8fc;strokeColor=#6c8ebf;" vertex="1" parent="1">
          <mxGeometry x="335" y="405" width="110" height="30" as="geometry" />
        </mxCell>
        <mxCell id="pxW2N-9aUfCXWLF0EJ2--19" value="" style="edgeStyle=orthogonalEdgeStyle;rounded=0;orthogonalLoop=1;jettySize=auto;html=1;sketch=1;" edge="1" parent="1" source="pxW2N-9aUfCXWLF0EJ2--20" target="pxW2N-9aUfCXWLF0EJ2--16">
          <mxGeometry relative="1" as="geometry" />
        </mxCell>
        <mxCell id="pxW2N-9aUfCXWLF0EJ2--20" value="5 h 17" style="rounded=1;whiteSpace=wrap;html=1;sketch=1;fillColor=#dae8fc;strokeColor=#6c8ebf;" vertex="1" parent="1">
          <mxGeometry x="335" y="455" width="110" height="30" as="geometry" />
        </mxCell>
        <mxCell id="pxW2N-9aUfCXWLF0EJ2--21" value="最大记录" style="rounded=1;whiteSpace=wrap;html=1;sketch=1;fillColor=#f5f5f5;strokeColor=#666666;fontColor=#333333;" vertex="1" parent="1">
          <mxGeometry x="335" y="554.5" width="110" height="30" as="geometry" />
        </mxCell>
        <mxCell id="pxW2N-9aUfCXWLF0EJ2--36" style="edgeStyle=orthogonalEdgeStyle;rounded=0;sketch=1;orthogonalLoop=1;jettySize=auto;html=1;exitX=0;exitY=0.75;exitDx=0;exitDy=0;entryX=1;entryY=0.75;entryDx=0;entryDy=0;" edge="1" parent="1" source="pxW2N-9aUfCXWLF0EJ2--22" target="pxW2N-9aUfCXWLF0EJ2--12">
          <mxGeometry relative="1" as="geometry" />
        </mxCell>
        <mxCell id="pxW2N-9aUfCXWLF0EJ2--22" value="" style="rounded=1;whiteSpace=wrap;html=1;sketch=1;" vertex="1" parent="1">
          <mxGeometry x="560" y="339.5" width="160" height="260" as="geometry" />
        </mxCell>
        <mxCell id="pxW2N-9aUfCXWLF0EJ2--23" value="" style="edgeStyle=orthogonalEdgeStyle;rounded=0;orthogonalLoop=1;jettySize=auto;html=1;sketch=1;" edge="1" parent="1" source="pxW2N-9aUfCXWLF0EJ2--24" target="pxW2N-9aUfCXWLF0EJ2--28">
          <mxGeometry relative="1" as="geometry" />
        </mxCell>
        <mxCell id="pxW2N-9aUfCXWLF0EJ2--24" value="最小记录" style="rounded=1;whiteSpace=wrap;html=1;sketch=1;fillColor=#f5f5f5;strokeColor=#666666;fontColor=#333333;" vertex="1" parent="1">
          <mxGeometry x="585" y="374" width="110" height="30" as="geometry" />
        </mxCell>
        <mxCell id="pxW2N-9aUfCXWLF0EJ2--27" value="" style="edgeStyle=orthogonalEdgeStyle;rounded=0;orthogonalLoop=1;jettySize=auto;html=1;sketch=1;" edge="1" parent="1" source="pxW2N-9aUfCXWLF0EJ2--28" target="pxW2N-9aUfCXWLF0EJ2--30">
          <mxGeometry relative="1" as="geometry" />
        </mxCell>
        <mxCell id="pxW2N-9aUfCXWLF0EJ2--28" value="7 k 12" style="rounded=1;whiteSpace=wrap;html=1;sketch=1;fillColor=#dae8fc;strokeColor=#6c8ebf;" vertex="1" parent="1">
          <mxGeometry x="585" y="424" width="110" height="30" as="geometry" />
        </mxCell>
        <mxCell id="pxW2N-9aUfCXWLF0EJ2--29" value="" style="edgeStyle=orthogonalEdgeStyle;rounded=0;orthogonalLoop=1;jettySize=auto;html=1;sketch=1;" edge="1" parent="1" source="pxW2N-9aUfCXWLF0EJ2--30">
          <mxGeometry relative="1" as="geometry">
            <mxPoint x="640" y="524" as="targetPoint" />
          </mxGeometry>
        </mxCell>
        <mxCell id="pxW2N-9aUfCXWLF0EJ2--30" value="8 x 9" style="rounded=1;whiteSpace=wrap;html=1;sketch=1;fillColor=#dae8fc;strokeColor=#6c8ebf;" vertex="1" parent="1">
          <mxGeometry x="585" y="474" width="110" height="30" as="geometry" />
        </mxCell>
        <mxCell id="pxW2N-9aUfCXWLF0EJ2--31" value="最大记录" style="rounded=1;whiteSpace=wrap;html=1;sketch=1;fillColor=#f5f5f5;strokeColor=#666666;fontColor=#333333;" vertex="1" parent="1">
          <mxGeometry x="584" y="529.5" width="110" height="30" as="geometry" />
        </mxCell>
      </root>
    </mxGraphModel>
  </diagram>
</mxfile>
